<?xml version="1.0" encoding="utf-8"?>
<!-- Generator: Adobe Illustrator 26.1.0, SVG Export Plug-In . SVG Version: 6.00 Build 0)  -->
<svg version="1.1" id="Layer_1" xmlns="http://www.w3.org/2000/svg" xmlns:xlink="http://www.w3.org/1999/xlink" x="0px" y="0px"
	 viewBox="0 0 448.8 448" style="enable-background:new 0 0 448.8 448;" xml:space="preserve">
<style type="text/css">
	.st0{fill-rule:evenodd;clip-rule:evenodd;}
</style>
<g>
	<path class="st0" d="M369.2,44.8L205.5,208.5c-9.6,9.6-9.6,25.2,0,34.8c9.6,9.6,25.2,9.6,34.8,0L403.9,79.7v54.7
		c0,12.3,10,22.4,22.4,22.4c12.3,0,22.4-10,22.4-22.4v-112c0-6.2-2.5-11.8-6.6-15.8c-4.1-4.1-9.6-6.6-15.8-6.6h-112
		c-12.3,0-22.4,10-22.4,22.4c0,12.3,10,22.4,22.4,22.4L369.2,44.8z M448.8,268.8V162.3v229.9c0,30.8-22.2,55.8-49.7,55.8H50.4
		C23,448,0.8,423,0.8,392.2V55.8C0.8,25,23,0,50.4,0h239.1H180c12.4,0,22.4,10,22.4,22.4s-10,22.4-22.4,22.4H58.3
		c-7.1,0-12.8,6.7-12.8,14.9v328.5c0,8.1,5.7,14.9,12.8,14.9h332.9c7.1,0,12.8-6.7,12.8-14.9V268.8c0-12.4,10-22.4,22.4-22.4
		S448.8,256.4,448.8,268.8L448.8,268.8z"/>
</g>
</svg>
