<?xml version="1.0" encoding="utf-8"?>
<!-- Generator: Adobe Illustrator 18.0.0, SVG Export Plug-In . SVG Version: 6.00 Build 0)  -->
<!DOCTYPE svg PUBLIC "-//W3C//DTD SVG 1.1//EN" "http://www.w3.org/Graphics/SVG/1.1/DTD/svg11.dtd">
<svg version="1.1" id="Layer_1" xmlns="http://www.w3.org/2000/svg" xmlns:xlink="http://www.w3.org/1999/xlink" x="0px" y="0px"
	 viewBox="0 0 419 8" enable-background="new 0 0 419 8" xml:space="preserve">
<title>Page 1</title>
<desc>Created with Sketch.</desc>
<g id="Final">
	<g id="v2-tall-image" transform="translate(-848.000000, -1053.000000)">
		<g id="Page-1" transform="translate(848.000000, 1051.000000)">
			<g id="Group-3" transform="translate(417.046620, 5.367000)">
				<g id="Clip-2">
				</g>
				<defs>
					<filter id="Adobe_OpacityMaskFilter" filterUnits="userSpaceOnUse" x="0.4" y="1.3" width="1" height="0.8">
						<feColorMatrix  type="matrix" values="1 0 0 0 0  0 1 0 0 0  0 0 1 0 0  0 0 0 1 0"/>
					</filter>
				</defs>
				<mask maskUnits="userSpaceOnUse" x="0.4" y="1.3" width="1" height="0.8" id="mask-2">
					<g filter="url(#Adobe_OpacityMaskFilter)">
						<polygon id="path-1" fill="#FFFFFF" points="1.4,3.3 1.4,1.3 0.4,1.3 0.4,3.3 						"/>
					</g>
				</mask>
				<path id="Fill-1" mask="url(#mask-2)" fill="#46772E" d="M1.3,1.8c0.2-0.2,0.1-0.6-0.5-0.6L0.4,2L1.3,1.8z"/>
			</g>
			<path id="Fill-4" fill="#46772E" d="M414.3,5.8c-0.7,0.4-1.5,1-1.1,1.7c0.7-0.7,0.9-0.4,1.6-1.3c0.6-0.1,1.1,0.2,1,0.5
				c0.2-0.2,0.9,0.2,1.3-0.3c-0.8-0.6-1.8-0.6-2.8-0.1C414,6.1,414.2,5.9,414.3,5.8"/>
			<path id="Fill-6" fill="#46772E" d="M355,4.6l0.4,0.1C355.2,4.7,355.1,4.6,355,4.6"/>
			<path id="Fill-8" fill="#46772E" d="M318.2,4.2c0.3,0,0.4-0.1,0.4-0.2C318.4,4.1,318.1,4.1,318.2,4.2"/>
			<path id="Fill-10" fill="#46772E" d="M311.9,3.4c0.1,0,0.2,0,0.4,0.1C312.2,3.4,312,3.3,311.9,3.4"/>
			<path id="Fill-12" fill="#46772E" d="M355,4.6l-1-0.2C353.9,4.6,354.5,4.6,355,4.6"/>
			<g id="Group-16" transform="translate(405.326340, 7.367000)">
				<g id="Clip-15">
				</g>
				<defs>
					<filter id="Adobe_OpacityMaskFilter_1_" filterUnits="userSpaceOnUse" x="0.8" y="0.1" width="0.5" height="0.2">
						<feColorMatrix  type="matrix" values="1 0 0 0 0  0 1 0 0 0  0 0 1 0 0  0 0 0 1 0"/>
					</filter>
				</defs>
				<mask maskUnits="userSpaceOnUse" x="0.8" y="0.1" width="0.5" height="0.2" id="mask-4">
					<g filter="url(#Adobe_OpacityMaskFilter_1_)">
						<polygon id="path-3" fill="#FFFFFF" points="0.8,2 1.7,2 1.7,0.1 0.8,0.1 						"/>
					</g>
				</mask>
				<path id="Fill-14" mask="url(#mask-4)" fill="#46772E" d="M0.8,0.3c0.2,0,0.4-0.1,0.5-0.2L0.8,0.1C0.8,0.2,0.8,0.2,0.8,0.3"/>
			</g>
			<path id="Fill-17" fill="#46772E" d="M371.2,4h0.3c0.1-0.1,0.2-0.2,0.2-0.3L371.2,4z"/>
			<path id="Fill-19" fill="#46772E" d="M383.6,3.9c-0.3,0-0.4,0.6-0.5,0.9c0.2-0.3,0.4-0.4,0.6-0.4C383.7,4.2,383.7,4.1,383.6,3.9"
				/>
			<path id="Fill-21" fill="#46772E" d="M403.3,5l0.3-0.1C403.6,5,403.4,5,403.3,5"/>
			<path id="Fill-23" fill="#46772E" d="M362.3,3.9c0-0.1-0.1-0.2-0.1-0.2C362.1,3.7,362.2,3.8,362.3,3.9"/>
			<g id="Group-27" transform="translate(13.673660, 7.367000)">
				<g id="Clip-26">
				</g>
				<defs>
					<filter id="Adobe_OpacityMaskFilter_2_" filterUnits="userSpaceOnUse" x="0.7" y="1.2" width="0.1" height="0.1">
						<feColorMatrix  type="matrix" values="1 0 0 0 0  0 1 0 0 0  0 0 1 0 0  0 0 0 1 0"/>
					</filter>
				</defs>
				<mask maskUnits="userSpaceOnUse" x="0.7" y="1.2" width="0.1" height="0.1" id="mask-6">
					<g filter="url(#Adobe_OpacityMaskFilter_2_)">
						<polygon id="path-5" fill="#FFFFFF" points="0.7,2 1.7,2 1.7,1.2 0.7,1.2 						"/>
					</g>
				</mask>
				<path id="Fill-25" mask="url(#mask-6)" fill="#46772E" d="M0.8,1.3c0,0,0-0.1,0-0.1C0.7,1.3,0.7,1.3,0.8,1.3"/>
			</g>
			<path id="Fill-28" fill="#46772E" d="M0.1,5.5l0.2,0c0-0.1,0-0.2,0-0.4L0.1,5.5z"/>
			<path id="Fill-30" fill="#46772E" d="M300.4,2.6C300.5,2.6,300.5,2.6,300.4,2.6C300.8,2.5,300.6,2.5,300.4,2.6"/>
			<path id="Fill-32" fill="#46772E" d="M195,3c1.2,0.6-1.9,0.7-0.1,1.4C194.7,4.2,196.5,3.4,195,3"/>
			<g id="Group-36" transform="translate(404.349650, 7.367000)">
				<g id="Clip-35">
				</g>
				<defs>
					<filter id="Adobe_OpacityMaskFilter_3_" filterUnits="userSpaceOnUse" x="0.9" y="0.2" width="0.5" height="0">
						<feColorMatrix  type="matrix" values="1 0 0 0 0  0 1 0 0 0  0 0 1 0 0  0 0 0 1 0"/>
					</filter>
				</defs>
				<mask maskUnits="userSpaceOnUse" x="0.9" y="0.2" width="0.5" height="0" id="mask-8">
					<g filter="url(#Adobe_OpacityMaskFilter_3_)">
						<polygon id="path-7" fill="#FFFFFF" points="0.9,2 1.9,2 1.9,0.2 0.9,0.2 						"/>
					</g>
				</mask>
				<path id="Fill-34" mask="url(#mask-8)" fill="#46772E" d="M1.4,0.2l-0.5,0C1.1,0.2,1.3,0.2,1.4,0.2"/>
			</g>
			<path id="Fill-37" fill="#46772E" d="M194.9,4.4L194.9,4.4l0.2,0.1C195,4.4,194.9,4.4,194.9,4.4"/>
			<path id="Fill-39" fill="#46772E" d="M274,2.9c0.1,0.1,0.2,0.2,0.3,0.3C274.2,3.2,274.2,3.1,274,2.9"/>
			<path id="Fill-41" fill="#46772E" d="M293.7,3.9l-0.5-0.1C293.4,3.8,293.6,3.9,293.7,3.9"/>
			<path id="Fill-43" fill="#46772E" d="M263.7,3.9c-0.3,0-0.4-0.1-0.7,0c0,0,0.1,0.1,0.1,0.1C263.3,3.8,263.4,3.7,263.7,3.9"/>
			<path id="Fill-45" fill="#46772E" d="M253.1,3.9c0.1,0.1,0.1,0.1,0.2,0.1c0.1,0,0.2,0,0.3,0L253.1,3.9z"/>
			<g id="Group-49" transform="translate(45.904429, 7.367000)">
				<g id="Clip-48">
				</g>
				<defs>
					<filter id="Adobe_OpacityMaskFilter_4_" filterUnits="userSpaceOnUse" x="0" y="0.4" width="0.9" height="0.6">
						<feColorMatrix  type="matrix" values="1 0 0 0 0  0 1 0 0 0  0 0 1 0 0  0 0 0 1 0"/>
					</filter>
				</defs>
				<mask maskUnits="userSpaceOnUse" x="0" y="0.4" width="0.9" height="0.6" id="mask-10">
					<g filter="url(#Adobe_OpacityMaskFilter_4_)">
						<polygon id="path-9" fill="#FFFFFF" points="0,2 1,2 1,0.4 0,0.4 						"/>
					</g>
				</mask>
				<path id="Fill-47" mask="url(#mask-10)" fill="#46772E" d="M0.9,1C0.7,0.8,0.6,0.6,0.5,0.4C0.6,0.9-0.9,1.1,0.9,1"/>
			</g>
			<path id="Fill-50" fill="#46772E" d="M406.1,7.3c-0.1,0.2-0.2,0.2-0.3,0.3c0.1,0,0.2,0,0.4,0C406.2,7.4,406.2,7.3,406.1,7.3"/>
			<g id="Group-54" transform="translate(260.776224, 7.367000)">
				<g id="Clip-53">
				</g>
				<defs>
					<filter id="Adobe_OpacityMaskFilter_5_" filterUnits="userSpaceOnUse" x="0.8" y="1.4" width="1.7" height="0.1">
						<feColorMatrix  type="matrix" values="1 0 0 0 0  0 1 0 0 0  0 0 1 0 0  0 0 0 1 0"/>
					</filter>
				</defs>
				<mask maskUnits="userSpaceOnUse" x="0.8" y="1.4" width="1.7" height="0.1" id="mask-12">
					<g filter="url(#Adobe_OpacityMaskFilter_5_)">
						<polygon id="path-11" fill="#FFFFFF" points="0.8,2 2.5,2 2.5,1.4 0.8,1.4 						"/>
					</g>
				</mask>
				<path id="Fill-52" mask="url(#mask-12)" fill="#46772E" d="M2.5,1.5L0.8,1.4C1.3,1.5,1.9,1.5,2.5,1.5"/>
			</g>
			<g id="Group-57" transform="translate(122.086247, 7.367000)">
				<g id="Clip-56">
				</g>
				<defs>
					<filter id="Adobe_OpacityMaskFilter_6_" filterUnits="userSpaceOnUse" x="0.8" y="0.9" width="0.4" height="0.1">
						<feColorMatrix  type="matrix" values="1 0 0 0 0  0 1 0 0 0  0 0 1 0 0  0 0 0 1 0"/>
					</filter>
				</defs>
				<mask maskUnits="userSpaceOnUse" x="0.8" y="0.9" width="0.4" height="0.1" id="mask-14">
					<g filter="url(#Adobe_OpacityMaskFilter_6_)">
						<polygon id="path-13" fill="#FFFFFF" points="0.8,2 1.8,2 1.8,0.9 0.8,0.9 						"/>
					</g>
				</mask>
				<path id="Fill-55" mask="url(#mask-14)" fill="#46772E" d="M1.2,0.9L0.8,1C1,1,1.1,1,1.2,0.9"/>
			</g>
			<g id="Group-60" transform="translate(254.916084, 7.367000)">
				<g id="Clip-59">
				</g>
				<defs>
					<filter id="Adobe_OpacityMaskFilter_7_" filterUnits="userSpaceOnUse" x="0.5" y="1.1" width="1.1" height="0.4">
						<feColorMatrix  type="matrix" values="1 0 0 0 0  0 1 0 0 0  0 0 1 0 0  0 0 0 1 0"/>
					</filter>
				</defs>
				<mask maskUnits="userSpaceOnUse" x="0.5" y="1.1" width="1.1" height="0.4" id="mask-16">
					<g filter="url(#Adobe_OpacityMaskFilter_7_)">
						<polygon id="path-15" fill="#FFFFFF" points="0.5,2 1.7,2 1.7,1.1 0.5,1.1 						"/>
					</g>
				</mask>
				<path id="Fill-58" mask="url(#mask-16)" fill="#46772E" d="M1.7,1.5c-0.3-0.2-0.6-0.4-1-0.4C0.7,1.1,0.6,1.2,0.5,1.3L1.7,1.5z"
					/>
			</g>
			<g id="Group-63" transform="translate(45.904429, 7.367000)">
				<g id="Clip-62">
				</g>
				<defs>
					<filter id="Adobe_OpacityMaskFilter_8_" filterUnits="userSpaceOnUse" x="0.4" y="0.4" width="0" height="0">
						<feColorMatrix  type="matrix" values="1 0 0 0 0  0 1 0 0 0  0 0 1 0 0  0 0 0 1 0"/>
					</filter>
				</defs>
				<mask maskUnits="userSpaceOnUse" x="0.4" y="0.4" width="0" height="0" id="mask-18">
					<g filter="url(#Adobe_OpacityMaskFilter_8_)">
						<polygon id="path-17" fill="#FFFFFF" points="0.4,2 1.4,2 1.4,0.4 0.4,0.4 						"/>
					</g>
				</mask>
				<path id="Fill-61" mask="url(#mask-18)" fill="#46772E" d="M0.4,0.4C0.5,0.4,0.5,0.4,0.4,0.4C0.5,0.4,0.5,0.4,0.4,0.4"/>
			</g>
			<g id="Group-66" transform="translate(0.000000, 1.367000)">
				<g id="Clip-65">
				</g>
				<defs>
					<filter id="Adobe_OpacityMaskFilter_9_" filterUnits="userSpaceOnUse" x="0" y="0.6" width="412.3" height="7.4">
						<feColorMatrix  type="matrix" values="1 0 0 0 0  0 1 0 0 0  0 0 1 0 0  0 0 0 1 0"/>
					</filter>
				</defs>
				<mask maskUnits="userSpaceOnUse" x="0" y="0.6" width="412.3" height="7.4" id="mask-20">
					<g filter="url(#Adobe_OpacityMaskFilter_9_)">
						<polygon id="path-19" fill="#FFFFFF" points="0,8 412.3,8 412.3,0.6 0,0.6 						"/>
					</g>
				</mask>
				<path id="Fill-64" mask="url(#mask-20)" fill="#46772E" d="M69.3,1.6c0.5-0.1,0.7,0,0.7,0.2c-0.2,0-0.5,0-0.9,0.1
					c0,0,0,0.1-0.1,0.1C69.2,1.8,69.2,1.7,69.3,1.6 M76,6c-0.4,0-0.9,0-1.4,0c-0.1-0.2,0-0.4,0.3-0.4C74.8,5.7,75.6,5.8,76,6
					 M72.9,6L72.9,6c-0.3,0-0.6,0-0.8,0C72.3,6.1,72.5,6,72.9,6 M36.3,6.6c1.9-0.2,0.9,0.6,1.5,1c1.2-0.2,2.1-1,3-1
					c0.1,0.1,0.2,0.2,0,0.4c1.3-0.7,3.8,0,5.3-0.9c0.1,0.1,0.2,0.1,0.2,0.2c-0.2-0.4-0.3-0.9-0.2-1.2c0.7,0,1.3-0.5,1.6,0
					c-0.4,0-0.5,0.2-0.7,0.4l0.8-0.2c0.7,0.8-1,0.3-1,0.9C48.3,6,50,5.4,51.1,5.6c0.2,0.8-2.6,0.3-1.1,0.9l-1.8-0.3
					c1.3,1.2-1.1-0.1,0.2,1.2c2.3,0.2,2.6-0.4,4.9-0.2c0.5-0.4-0.2-0.6,0.3-1.1c3.3-0.8,2.6,1.9,5,0.9c0.6-0.5,0.9-1.5,2.6-1
					l-0.6,0.9c2.2,0.1,1.3-1.3,3.6-0.7c-0.4,0.3-1.8,0.3-1.4,0.4c1.5,0.7,1.1-0.5,2.2-0.5l0.2,0.8c2.4-0.1,5-0.7,7.6-0.8
					c-0.1,0.2-0.6,0.5,0,0.7C76.2,6.6,80,7,83.2,7.5l1.2-0.7c0.3,0,0.5,0.3,0.2,0.4c1.2,0.3,0.1-0.4,0.7-0.7c0.7,0,0.9,0.4,0.5,0.6
					C88,6.6,92,5.9,94.4,6.7l-0.5,0.2c1.8,0.3,2-1.4,3.7-0.7l-0.3,0.1c3.9,0.3,8.3-0.3,11.2,0.7c0.6-1,3.9,0.4,4.1-0.9
					c2.2,0.7,1.6,0.9,4.7,1.4c0.8,0.1,1.3-0.8,2.3-1l0,0.7l1.4-0.7l0.8,0.8l1-0.2c-0.4,0-0.8-0.3-0.8-0.5c1.5-0.3,3.7,0.5,3.8,0.8
					l3.6-0.6c-0.1,0.3-0.7,0.4-1.2,0.6c1.9-0.7,0.3,0.7,2.1,0.1c-0.2-0.2,0.1-0.4,0.2-0.6c0.9,0.4,2.9,0.4,4.4,0.2l-0.3,0.5
					c2.7,0.1,5.6-0.2,8.6-0.2c-1.1-0.2-0.8-1.1,0.1-1.1l0.4,0.7c0.6-0.5-0.9-0.3,0.2-0.8c1.1,0.1,0.8,0.8,0.1,1.1l1.4-0.3
					c0.1,0.2-0.2,0.3-0.3,0.6c0.6-0.5,2.4,0.7,3.2-0.1l0.1,0.2c3,0,4.4-0.2,6.8-0.3c0-0.6,1-0.5,1.7-1c1.8,0.2,3.8,0.7,6,0.7
					c1.5-0.3,0.4-0.5,1.1-0.9c0.1,0.6,2.3,0.5,1.2,0.9c2.6-0.1,3.3-0.1,6.6-0.6c-0.4-0.2-0.8-0.3-0.6-0.5c0.6-0.1,1.4,0.2,1.3,0.5
					l-0.2,0.1c3.7-0.9,8.5,1.7,11.5,0.5l-0.2,0.1l3-0.6c1.4,0.1-0.8,0.4,0.2,0.8c3.3-1,5.2,0.1,7.9-0.5c2.1,1.7,7.4-0.1,10.3,1
					l-0.2-0.4c0.7-0.4,0.9,0.2,1.4,0.3c-0.1-0.3-0.8-0.4-0.3-0.6c6.2-0.5,12.8,0.6,19.1,1c2.3,0.1,1.3-2.1,4.2-1.1l-0.8,0.8
					c4.7-0.9,9.6,0,14.2-0.7c-0.3,0.2-0.3,0.4-0.7,0.4c1,0.5,3.6,0,3.6-0.4c0.7,0.1,0.2,0.4,0.6,0.6c1,0.3,2.4-0.7,3-0.2
					c0.1,0.1-0.3,0.2-0.5,0.2c0.6-0.3,3,0.1,2.3-0.6c1.7,0.3,3.3-0.3,4.7,0.1c0.9-0.7,2.9,0.3,3.2-0.7c-0.1,1,3,0.8,4.1,0.3
					c-0.4,0.3,0.9,0.3,0.5,0.8c1.2,0,2.4-0.2,2.2-0.7c2.3,1.2,4.6-1,5.9,0.6c3.7-0.6,7.1-0.9,10.4-1.2c-0.1,1-3.7,0.1-3.5,1.2
					c3.1-0.4,5-1.3,8.1-1.1c0.8,0.1-0.5,0.4-0.7,0.6c3.1-0.4,6.1,0.1,8.9-0.5c0,0.1-0.3,0.2-0.6,0.3c0.6,0,1.3,0.1,1.2-0.3l-0.5,0.1
					c-0.9-0.7,2.2-1.4,2.3-1.8c-0.9,1.3,2.8,0.3,1.3,2c0.4-0.1,0.8-0.3,0.7-0.6c0.5,0.1,0.7,0.3,0.2,0.6c2-0.3,1.3-0.7,3.1-0.7
					c0,0.2-0.4,0.3-0.6,0.6c0.9-0.4,1.8-0.9,3.3-0.7c-0.1,0.1,0.1,0.3-0.4,0.3c2.6-0.1,4.4-1.2,7.3-0.8c-0.8,1,1,0.3,1.1,1.2
					l1.5-0.3L314,6.1c1.3,0,2.5-0.6,3.7-0.3l-1,0.3l2.5-0.2l-1.4-0.3c1.4-0.4-0.1-1.1,1.6-0.8c-0.4,0.1,1.3,0,2,0.5
					c0.7-0.3,1.3-0.6,2.3-0.3c0.3,0.3-0.2,0.9,0,1.1c0.7-0.7,3.1-0.2,4-1c-0.3,0.2-0.3,0.6-0.2,0.7l0.5-0.6c0.6,0.2,0.7,0.3,0.6,0.6
					c1.9,0.1-0.6-1.1,1.6-0.6c-0.2,0-0.1,0.1-0.5,0.2c2.2,0.2,4.3-0.4,6.4-0.1c0.6,0.9-1.8,0.2-1.1,0.9c3-0.2,6.1-1,9-0.8l-0.5-0.1
					c0.4-1.2,2.1,0.6,3.6,0c-0.4,0.1-0.5,0.7-0.4,0.5c2,0.2,4-0.3,7-0.7l-0.4,0.3c1.2,0.3,3,0.2,4.3,0.3c0.4-0.3,1.1-0.3,0.7-0.7
					c3.8,1.8,7.3-0.9,10.7,0.5c-0.4,0-1,0.3-0.6,0.3l2.9-0.3c-0.2-0.5-0.4-0.3-1-0.7c0.4-0.3,1.2-0.6,1.9-0.6
					c-1.3,0.3,0,0.8,0.6,1.1c-0.1-0.2,0.1-0.3,0.1-0.5c1.5,0.9,0.3-1.1,2.3-0.4l-0.1,0.3c0.8-0.1,1.5-0.5,2.3-0.4
					c0.3,0.6-0.8,0.3-0.9,0.8c1.2,0,2.3-1.2,3.4-0.5c-0.5,0.2-1.2,0.2-1.7,0.3c1.2,0.7,1.3,0.5,2.1,0.6l1.9,0.3l-0.5-0.2
					c1.5-1.6,3-0.3,5-1.3c-1.9,1-0.3,0.6-0.5,1.3c0.5,0.2,1.3,0.4,1.1,0.6c0.9-0.6,1.6,0.4,2.9-0.4c0.1,0.2,1,0,0.8,0.6
					c1.2-0.2-0.3-0.4-0.2-0.7c1.9-0.8,4.4,0.9,7.1-0.1c2.3-0.4,2.8-1.2,4.9-1.5c0.7,0.4-0.6,0.8-0.6,0.8c1.2,0.3,2.1,0.3,3.2,0
					c-0.2,0.2,0,0.4,0.3,0.6c0.9-0.1,0.6-0.8,1.8-0.5c-0.2,0.2-0.5,0.6-0.9,0.9c1-0.2,2.1-0.6,3.2-0.8c0.3,0.4-0.7,0.6-1,0.8
					c1.2-0.2,3.2-0.3,3.5-1l-0.8-0.2c0.4,0,0.2,0.5-0.1,0.6c-1,0.5-1.5-0.2-1.6-0.4l0.8-0.1c-0.8-1.3-3.1,0.2-4.7,0.1l0.6-0.9
					L405,4.9c-0.3-0.2-0.6-0.8,0.2-0.9c-1.1-0.5-1,0.3-1.9-0.2c-0.1-0.1-0.1-0.1,0-0.2l-1.1,0.3c0.2-0.2-0.2-0.7,0.5-0.5
					c-2-0.5-3.2,0.7-3.9,0l0.2-0.1c-2.7,0.3-0.3,0.7-2.3,1.5l-1.4-1.7l-0.3,0.7c-0.3,0-0.8-0.1-0.7-0.4c-1,0.5,0.2,0.3-0.4,0.8
					c-1.3-0.6-3.7,0.3-4-0.8c-0.5,0.5,1.3,0.4-0.2,0.8c-0.4-1.2-1.7,0.2-2.9-0.3c0.4-0.6,1.5-0.3,0.3-0.8c-0.7,1-2.4-0.2-3.4,0
					c0,0.8-2.3,0.3-4,0.6c0.1-0.3-3.3-0.5-4.9-0.8l0-0.1c-0.3,0.8-2,0.7-3.2,0.9c0-0.5,0.3-0.7,0.9-0.9c-1.4,0.3-1.8,0.4-2.5,0.5
					l0.3-0.6c-1.5,0-3.1,0.7-5,0.3c-0.1,0.6,1.6,1.6-0.5,2c-0.1-0.3-0.2-0.9,0.4-1c-0.2,0-0.6,0.3-1,0.1l0.8-0.5
					c-0.9-0.2-0.5,0.4-1.2,0.4c0-0.4-0.5-0.3-0.4-0.7c0.1-0.1-0.9-0.3-1.2-0.7c0.1,0.3,0,0.6-0.6,0.7c-1.5,0-0.5-0.5-1.4-0.8
					c-0.4,0.3-1.3,0-1.4,0.7c-0.4,0-0.5-0.3-0.7-0.5c-0.8,0.3-3.7,0.1-2.8,0.8l0.2,0c0,0-0.1,0-0.1,0c-2.6,0.7-5.4-0.4-7.9-0.1
					l0-0.2c-1.5,0.3-3.4,0.2-4.5,0.6c-0.5,0-1.1-0.4-0.9-0.7c-1.2,0.2-1.3,0.4-3,0c1.2-0.4-0.4-0.3,1.2-0.3
					c-1.5-0.2-1.9-0.6-3.5,0.1c0.6-0.6-1.1-0.7-1.9-0.6l1.1,0.4c-0.8,0.1-1.5,0-2.2,0l0.4-0.8c-3.1-0.9-5.6,1.6-8,0
					c-0.8,0.5,1.7,0.4,1,1c-1.4-0.1-2.9-1.2-3.4-1.2c-2-0.4-1.8,1.1-3.9,0.8c0.3,0.3,0.5,1-1,1.2c-1.4-0.1-1.8-1.1-0.9-1.3
					c0.3,0,0.5,0.1,0.5,0.2c0.5-0.1,1.1-0.2,0.5-0.5l-0.2,0.3c-0.7-0.3-2.7-0.2-2.2-0.7c-1.1,0.3-0.5,0.4,0.3,0.6
					c-1.8-0.4-2.9,0-4.8-0.3c0.3,0.1,0.6,0.5,0.3,0.5c-2.8-0.3-1.2,0.5-3.1,0.6c-1.1-0.4,0.4-1-1.5-0.6c-1.2-0.3-0.2-0.7,0.2-0.9
					c-1.7,0.5-3.2-0.3-4.2-0.4l0.9-0.2c-0.5,0.1-1,0.1-1.4,0.1l0.5,0.5c-0.5-0.1-1-0.1-1-0.3c-0.5,0.4,0.4,0.9-0.7,1.4
					c-0.7-0.3-2.2,0.3-2.4-0.4c2.2,0.2-0.2-0.7,1.6-0.8c-0.4,0.1-0.8,0.1-1.3,0c-0.1-0.1,0.1-0.1,0.2-0.2c-2.1-0.6-1,0.8-3.2,0.8
					c0.3-0.4-0.5-0.8-0.9-0.7c0.9,0,0.4,0.7-0.4,1c-1.4-0.3-1.5,0.2-2.3,0.2l0.8,0.1c-0.3,0.4-1,0.4-2,0.5c-0.1-0.3,0.9-0.2,0.5-0.4
					c-1.1,0.7-2.5-0.7-4-0.3c-0.7-0.3-0.1-0.8-0.7-0.9c-1.7,0.5-1.9-0.6-3.7-0.1c0.5,0.5,0.6,0.4-0.7,0.9l3-0.4l-1.9,0.8
					c0.9,0,1.9-0.3,2.4-0.2c-0.9,0.4-0.8,0.3-0.4,0.8c-1.2-0.8-2.4,0.5-3.8-0.1l0-1.3c-2.1-0.6-3.8,0.7-6.5,0.4l0.9,0.2
					c-0.4,0.5-1.7,0.1-2.6,0.3c0.1-0.5-0.5-0.6-0.9-0.9c0,0.3-2,0-2.3,0.9l-1.2-0.6c-2.2-0.2-2.6,1.3-4.7,1.1
					c0.6-0.5-0.3-0.8,1.1-1.2c-0.7,0-1.4-0.1-1.4,0.2c-0.4-0.3-2,0.6-2.6,0.2c-0.3,0.2-0.4,0.7-1.2,0.6c-0.1-0.1,0-0.2,0-0.2
					c0,0.2-1.3,0.3-0.6,0.8c-2.2-1.4-6.2,0.1-8.1-1.1c-1.6,0.2-3.4,0.3-4.9,0.3c0.1-0.1,0-0.2,0.3-0.2c-2-0.4-1.2,1.3-3.4,0.8
					c-1.1-0.7,1.2-0.4,0.5-0.7c-0.3-1.5-2.7,0.2-4.2-0.7l0.4-0.1c-1.1-0.5-2.8,0.6-4.7,0.5c0,0,0.1-0.1,0-0.2
					c-1.3,0.8-3.7,1-5.5,1.2c0.6-0.6,0.8-0.3,0.5-0.9c-0.8,0.1,0.2,0.9-1.4,1.1c-0.5-0.3-1.7-0.6-1.8-1.2l1.5,0
					c-0.8-0.8-2,0-2.8-0.1l0.1-0.4c-2.3,0.1-2.4,1-4.9,0.9l0.3,0.3c-1.4,0.9-1.1-0.5-2.5,0.2l-0.4-0.9c-0.9,0.2-3.2,0.9-4.8,1
					c0.9-0.7,2.8-1,4-1.4c-0.9,0-3,0.1-3.5,0.5c0.4-0.1,0.8-0.3,1.2-0.2c-1.1,0.7-2.5,1.1-4.3,1c0.3-1.7-4.6-0.4-5.9-1.8
					c-3.2,0.6-6.3-0.3-9.9-0.2c1.3,1.4-1.1,0-0.8,1.4c-0.9,0.1-1.2,0.1-1.3,0l-2.6-0.8c-0.6-0.4,0.8-0.3,0.7-0.6
					c-1.9-0.1-0.8-0.6-2-1c0.3,0.5-0.7,0.7-1.7,0.5l1.5,0.6c-2.6,0.7-2.3-1.2-4.9-0.4l0.8-0.4c-1.4,0.3-5,0-6.3,1.1
					c-0.2-0.2-0.6-0.5,0-0.6c-3.2-0.2-7.2,1.2-9.7,0.5l0.2-0.3c-0.6,0.1-1.1,0.6-1.8,0.3c0-0.1,0.2-0.3,0-0.4
					c-0.3,0.1-1.6,0.6-2.4,0.4l0.7-0.4c-3.2-0.4-4.8,0.9-7.5,1.2c0-1-2.5-1.3-3.7-1.5l0-0.1c-3.7-0.1-6.2,0.8-9.7,1.2
					c-2.1-1.1-7.2-0.5-10.6-1.1c0.5,0.2-0.1,0.8-0.7,0.9c-0.8-0.2-2.2,0.7-2.1-0.2c-0.3-0.9-2-0.6-3.2-0.7l-0.2,1.2
					c-3.3-1.7-8.8,0.6-10.6-0.9c-0.8,0.3-1.8,0.3-2.6,0.6l0-0.6c-2.2-0.2-3.4-0.2-6.1-0.1l0.6-0.5c-1.6,0-2,1.9-3.4,1.9l-0.4-1
					c-2.7,0-5.5-0.8-8.2,0c0-0.1,0.1-0.4,0.6-0.5c-1.3,0-5-0.7-4.5,0.7c0-0.9-2.8-0.1-4.3,0.3L91,1.7c-1.2,0.8-1.3,1-3,1.3
					c-0.4-0.1-0.4-0.5,0.2-0.3c-1.4-0.3-1.1,0.6-2.7,0.3l0.6-0.4c-1.4,0-1.3,0.2-2.1,0.6c-0.9,0.3-2.7-0.2-2.9-0.7
					c-0.2,0.3-1,0.8-1.8,0.7c-0.1-0.2,0.2-0.3,0.3-0.4c-2.4-0.4-3.5,0.7-5.1,0.1c0-0.2-0.1-0.3-0.3-0.4c1.9,0,3.4,0,3.2,0.1
					c0-0.6-1.5-0.7-0.3-1.5C76,1.4,74,2.4,72.5,2.1C72.4,2,72.3,2,72.3,1.9l0.2-0.1c-0.3-0.1-0.6,0-0.9,0.1
					c-0.5-0.1-0.8-0.2-1.2-0.2c-0.2-0.5-1.7-0.3-2.5-0.3c0.1,0.6-0.9,0.5,0,1.1c-0.1,0,0.1-0.1,0.6-0.1c0.1,0,0.2,0,0.3-0.1
					l-0.1,0.1c0.5,0,1.1,0,1.9,0C70,2.7,69.4,3,68.5,2.6c-0.4,0.4-0.8,0.8-1.1,1c-1-0.9-3-1.4-3.3-1.9c-2.3,0.4-5.4,0.2-6.9,1.4
					c-0.7,0.2-0.8-0.3-1-0.5c0.4-0.1,0.8-0.1,1-0.3c-1.3,0.3-3.9,0.1-4.2,1c-1.6-0.4,0.9-0.8-1.3-0.6l0.3-0.3
					C47.7,1.1,44.9,4.6,40,2.8c0.3,0.1,0.5,0.2,0.6,0.3c-5.6-0.8-11.6,0.7-17.2-0.5c-1.6-0.2-1.8,0.3-2.7,0.7l-0.3-0.7l-1.6,0.8
					c-2.3,0.6-4.1-1.7-7-0.6L12,3.3C11,3.2,8.7,3.6,8.9,3.1C8.7,3.1,8.5,3.5,8.1,3.3l0-0.4L5.4,3.6c-2-0.3,0.3-1.4-2.6-1.5
					c-1.1,0.1-3.1,1-2.7,1.3c0.4,0,1.1,0.2,1.2,0.6l-1,0.2C0.1,5.2-0.7,6.3,1.8,7l1.7-0.6L4,6.9l-1.4,0C3.4,7.4,3.9,7,4.5,6.7
					c0.1,0.3,0.4,0.5,0.7,0.6l1.7-1C7.1,6.6,6.2,7,7.3,7.3C8.1,6.8,6.5,6.3,7.8,6c0.8,0.5,0.6,0.9,1.5,0.5c0.1,0.3-0.1,0.4-0.5,0.6
					c0.9-0.3,2.3-0.1,2.7-0.7c0.9,0.6,2.9-0.2,2.8,0.8C14.7,7,16,6.4,16.8,6.4c-1.4,1.2,3,0.1,2.6,1.4c1.1-1.1,3.9-0.5,5.7-1.1
					c-0.1,0.1-0.3,0.3-0.5,0.2c1.1,0.1,1.4,0.4,2.1,0.6c0.1-0.9,1.8-1.1,2.7-1.6c1.3,0.9-0.8,1-0.4,1.9C28.9,7,31.2,7,30.8,6.4
					c1,0.5,0.9,0.3,1.4,1c0.2-1.1,0.9-0.2,1.8-0.9c1.4,0.6,0.4,1,2,0.7c0.8,0.3-0.7,0.7-0.7,0.7C36.8,8,36,7.1,36.3,6.6z"/>
			</g>
			<path id="Fill-67" fill="#46772E" d="M68.4,3.8c-0.1,0-0.1,0-0.2,0c0.1,0.1,0.2,0.1,0.3,0.1c0.1-0.1,0.1-0.1,0.2-0.2
				C68.6,3.8,68.5,3.8,68.4,3.8"/>
			<path id="Fill-69" fill="#46772E" d="M355.4,4.7L355.4,4.7C355.4,4.7,355.4,4.8,355.4,4.7C355.4,4.8,355.4,4.8,355.4,4.7"/>
			<g id="Group-73" transform="translate(119.156177, 7.367000)">
				<g id="Clip-72">
				</g>
				<defs>
					<filter id="Adobe_OpacityMaskFilter_10_" filterUnits="userSpaceOnUse" x="0.3" y="1.1" width="0.3" height="0.2">
						<feColorMatrix  type="matrix" values="1 0 0 0 0  0 1 0 0 0  0 0 1 0 0  0 0 0 1 0"/>
					</filter>
				</defs>
				<mask maskUnits="userSpaceOnUse" x="0.3" y="1.1" width="0.3" height="0.2" id="mask-22">
					<g filter="url(#Adobe_OpacityMaskFilter_10_)">
						<polygon id="path-21" fill="#FFFFFF" points="0.3,2 1.3,2 1.3,1.1 0.3,1.1 						"/>
					</g>
				</mask>
				<polygon id="Fill-71" mask="url(#mask-22)" fill="#46772E" points="0.6,1.2 0.6,1.1 0.3,1.2 				"/>
			</g>
			<path id="Fill-74" fill="#46772E" d="M372.8,6.9c0,0.1,0.1,0.1,0.2,0.2C373.1,7,373,7,372.8,6.9"/>
			<path id="Fill-76" fill="#46772E" d="M380.4,7.1l1.1,0.2C381,7.2,380.6,7.1,380.4,7.1"/>
			<path id="Fill-78" fill="#46772E" d="M386.2,7.4c0.1-0.1,0.1-0.2,0.1-0.3l0,0L386.2,7.4z"/>
			<g id="Group-82" transform="translate(293.006993, 7.367000)">
				<g id="Clip-81">
				</g>
				<defs>
					<filter id="Adobe_OpacityMaskFilter_11_" filterUnits="userSpaceOnUse" x="0.6" y="0.8" width="0.5" height="0.1">
						<feColorMatrix  type="matrix" values="1 0 0 0 0  0 1 0 0 0  0 0 1 0 0  0 0 0 1 0"/>
					</filter>
				</defs>
				<mask maskUnits="userSpaceOnUse" x="0.6" y="0.8" width="0.5" height="0.1" id="mask-24">
					<g filter="url(#Adobe_OpacityMaskFilter_11_)">
						<polygon id="path-23" fill="#FFFFFF" points="0.6,2 1.6,2 1.6,0.8 0.6,0.8 						"/>
					</g>
				</mask>
				<path id="Fill-80" mask="url(#mask-24)" fill="#46772E" d="M1.1,0.8c-0.1,0-0.2,0-0.2,0C0.3,0.9,0.7,0.9,1.1,0.8"/>
			</g>
			<path id="Fill-83" fill="#46772E" d="M321.5,6.6c-0.3,0.1-0.6,0.2-0.9,0.3C321.1,7,321.5,7,321.5,6.6"/>
			<g id="Group-87" transform="translate(262.729604, 7.367000)">
				<g id="Clip-86">
				</g>
				<defs>
					<filter id="Adobe_OpacityMaskFilter_12_" filterUnits="userSpaceOnUse" x="0.6" y="1.5" width="0.2" height="0">
						<feColorMatrix  type="matrix" values="1 0 0 0 0  0 1 0 0 0  0 0 1 0 0  0 0 0 1 0"/>
					</filter>
				</defs>
				<mask maskUnits="userSpaceOnUse" x="0.6" y="1.5" width="0.2" height="0" id="mask-26">
					<g filter="url(#Adobe_OpacityMaskFilter_12_)">
						<polygon id="path-25" fill="#FFFFFF" points="0.6,2 1.6,2 1.6,1.5 0.6,1.5 						"/>
					</g>
				</mask>
				<path id="Fill-85" mask="url(#mask-26)" fill="#46772E" d="M0.8,1.5C0.8,1.5,0.8,1.5,0.8,1.5l-0.2,0L0.8,1.5z"/>
			</g>
			<path id="Fill-88" fill="#46772E" d="M319.3,6.9c0.5,0.1,0.9,0.1,1.3,0C320.2,6.9,319.7,6.8,319.3,6.9"/>
			<g id="Group-92" transform="translate(411.186480, 7.367000)">
				<g id="Clip-91">
				</g>
				<defs>
					<filter id="Adobe_OpacityMaskFilter_13_" filterUnits="userSpaceOnUse" x="0.1" y="0.2" width="0.3" height="0.1">
						<feColorMatrix  type="matrix" values="1 0 0 0 0  0 1 0 0 0  0 0 1 0 0  0 0 0 1 0"/>
					</filter>
				</defs>
				<mask maskUnits="userSpaceOnUse" x="0.1" y="0.2" width="0.3" height="0.1" id="mask-28">
					<g filter="url(#Adobe_OpacityMaskFilter_13_)">
						<polygon id="path-27" fill="#FFFFFF" points="0.1,2 1,2 1,0.2 0.1,0.2 						"/>
					</g>
				</mask>
				<path id="Fill-90" mask="url(#mask-28)" fill="#46772E" d="M0.1,0.3l0.3,0c0,0,0-0.1,0-0.1L0.1,0.3z"/>
			</g>
			<g id="Group-95" transform="translate(411.186480, 7.367000)">
				<g id="Clip-94">
				</g>
				<defs>
					<filter id="Adobe_OpacityMaskFilter_14_" filterUnits="userSpaceOnUse" x="0.4" y="0.2" width="0.3" height="0.1">
						<feColorMatrix  type="matrix" values="1 0 0 0 0  0 1 0 0 0  0 0 1 0 0  0 0 0 1 0"/>
					</filter>
				</defs>
				<mask maskUnits="userSpaceOnUse" x="0.4" y="0.2" width="0.3" height="0.1" id="mask-30">
					<g filter="url(#Adobe_OpacityMaskFilter_14_)">
						<polygon id="path-29" fill="#FFFFFF" points="0.4,2 1.4,2 1.4,0.2 0.4,0.2 						"/>
					</g>
				</mask>
				<path id="Fill-93" mask="url(#mask-30)" fill="#46772E" d="M0.4,0.2l0.3-0.1C0.6,0.2,0.4,0.2,0.4,0.2"/>
			</g>
			<path id="Fill-96" fill="#46772E" d="M412.5,7.4l-0.7,0.2C412.1,7.5,412.4,7.5,412.5,7.4"/>
			<g id="Group-100" transform="translate(403.372960, 7.367000)">
				<g id="Clip-99">
				</g>
				<defs>
					<filter id="Adobe_OpacityMaskFilter_15_" filterUnits="userSpaceOnUse" x="0.1" y="0" width="0.1" height="0.2">
						<feColorMatrix  type="matrix" values="1 0 0 0 0  0 1 0 0 0  0 0 1 0 0  0 0 0 1 0"/>
					</filter>
				</defs>
				<mask maskUnits="userSpaceOnUse" x="0.1" y="0" width="0.1" height="0.2" id="mask-32">
					<g filter="url(#Adobe_OpacityMaskFilter_15_)">
						<polygon id="path-31" fill="#FFFFFF" points="0.1,2 1.1,2 1.1,0 0.1,0 						"/>
					</g>
				</mask>
				<path id="Fill-98" mask="url(#mask-32)" fill="#46772E" d="M0.2,0L0.1,0.2C0.2,0.2,0.2,0.1,0.2,0"/>
			</g>
			<path id="Fill-101" fill="#46772E" d="M401.3,7.4c0.6,0.1,1.4,0.5,2.2,0.3l0.1-0.2C403.1,8,401.8,7.1,401.3,7.4"/>
			<path id="Fill-103" fill="#46772E" d="M391.5,4.6l1.9,0.2c-0.3-0.2-0.8-0.6,0.1-0.6C391.1,3.4,394.1,4.7,391.5,4.6"/>
			<path id="Fill-105" fill="#46772E" d="M385.5,4.2c1-0.1,0-0.4,0-0.5C384.9,3.9,384.7,4,385.5,4.2"/>
			<path id="Fill-107" fill="#46772E" d="M341.7,4.2l0.1-0.6C341,3.7,341.8,3.9,341.7,4.2"/>
			<polygon id="Fill-109" fill="#46772E" points="333.4,7.2 334.2,7.6 334.5,7.1 			"/>
			<polygon id="Fill-111" fill="#46772E" points="328.4,3.1 328.8,3 327.5,3.2 			"/>
			<path id="Fill-113" fill="#46772E" d="M255,3.3l0.2,0.7C255.8,3.9,255.9,3.1,255,3.3"/>
			<path id="Fill-115" fill="#46772E" d="M223.3,4c-0.3-0.4-1.2-0.6-1.8-0.2C222.2,3.8,222.9,4.1,223.3,4"/>
			<polygon id="Fill-117" fill="#46772E" points="128.2,2.9 128.8,2.6 127.6,2.8 			"/>
		</g>
	</g>
</g>
</svg>
