<?xml version="1.0" encoding="UTF-8" standalone="no"?>
<svg width="419px" height="8px" viewBox="0 0 419 8" version="1.1" xmlns="http://www.w3.org/2000/svg" xmlns:xlink="http://www.w3.org/1999/xlink">
    <!-- Generator: Sketch 40 (33762) - http://www.bohemiancoding.com/sketch -->
    <title>Page 1</title>
    <desc>Created with Sketch.</desc>
    <defs>
        <polygon id="path-1" points="1.41034033 3.26583823 1.41034033 1.26583823 0.366551748 1.26583823 0.366551748 3.26583823 1.41034033 3.26583823"></polygon>
        <polygon id="path-3" points="0.766310956 2 1.74300093 2 1.74300093 0.052 0.766310956 0.052"></polygon>
        <polygon id="path-5" points="0.734359073 2 1.71104905 2 1.71104905 1.2024 0.734359073 1.2024 0.734359073 2"></polygon>
        <polygon id="path-7" points="0.910763403 2 1.88745338 2 1.88745338 0.167 0.910763403 0.167 0.910763403 2"></polygon>
        <polygon id="path-9" points="-0.000392107795 2 0.976297869 2 0.976297869 0.4358 -0.000392107795 0.4358"></polygon>
        <polygon id="path-11" points="0.842102098 2 2.53372914 2 2.53372914 1.4344 0.842102098 1.4344"></polygon>
        <polygon id="path-13" points="0.801569464 2 1.77825944 2 1.77825944 0.919 0.801569464 0.919 0.801569464 2"></polygon>
        <polygon id="path-15" points="0.530537995 2 1.67814872 2 1.67814872 1.0884 0.530537995 1.0884"></polygon>
        <polygon id="path-17" points="0.449668065 2 1.42635804 2 1.42635804 0.4288 0.449668065 0.4288 0.449668065 2"></polygon>
        <polygon id="path-19" points="0.00038449521 8 412.290628 8 412.290628 0.6332 0.00038449521 0.6332"></polygon>
        <polygon id="path-21" points="0.313908159 2 1.29059814 2 1.29059814 1.0724 0.313908159 1.0724 0.313908159 2"></polygon>
        <polygon id="path-23" points="0.597168458 2 1.57385843 2 1.57385843 0.7706 0.597168458 0.7706"></polygon>
        <polygon id="path-25" points="0.58073986 2 1.55742984 2 1.55742984 1.532 0.58073986 1.532"></polygon>
        <polygon id="path-27" points="0.0701263403 2 1.04681632 2 1.04681632 0.2326 0.0701263403 0.2326"></polygon>
        <polygon id="path-29" points="0.38296014 2 1.35965012 2 1.35965012 0.1576 0.38296014 0.1576 0.38296014 2"></polygon>
        <polygon id="path-31" points="0.129997436 2 1.10668741 2 1.10668741 0.0148 0.129997436 0.0148"></polygon>
    </defs>
    <g id="Final" stroke="none" stroke-width="1" fill="none" fill-rule="evenodd">
        <g id="v2-tall-image" transform="translate(-848.000000, -1053.000000)">
            <g id="Page-1" transform="translate(848.000000, 1051.000000)">
                <g id="Group-3" transform="translate(417.046620, 5.367000)">
                    <mask id="mask-2" fill="white">
                        <use xlink:href="#path-1"></use>
                    </mask>
                    <g id="Clip-2"></g>
                    <path d="M1.30905758,1.8292 C1.52881282,1.6352 1.40574988,1.1892 0.798248718,1.2772 L0.366551748,2.0312 L1.30905758,1.8292 Z" id="Fill-1" fill="#221F20" mask="url(#mask-2)"></path>
                </g>
                <path d="M414.274383,5.8006 C413.560423,6.1666 412.737073,6.8086 413.199048,7.5006 C413.907148,6.7766 414.077092,7.0766 414.836957,6.2166 C415.444458,6.1306 415.897642,6.4566 415.79509,6.7346 C416.008985,6.5426 416.738572,6.9006 417.064786,6.4266 C416.275621,5.8426 415.27256,5.8206 414.229455,6.3026 C414.004817,6.1366 414.222619,5.9406 414.274383,5.8006" id="Fill-4" fill="#221F20"></path>
                <path d="M354.952871,4.6268 L355.335734,4.7148 C355.230251,4.6668 355.100351,4.6388 354.952871,4.6268" id="Fill-6" fill="#221F20"></path>
                <path d="M318.200125,4.2118 C318.478482,4.1958 318.596661,4.1218 318.610335,4.0538 C318.351512,4.1018 318.137617,4.1478 318.200125,4.2118" id="Fill-8" fill="#221F20"></path>
                <path d="M311.926064,3.3828 C312.05987,3.4028 312.173166,3.4188 312.293299,3.4348 C312.153633,3.3648 312.012013,3.3268 311.926064,3.3828" id="Fill-10" fill="#221F20"></path>
                <path d="M354.952871,4.6268 L353.971298,4.3888 C353.902929,4.6348 354.476246,4.5708 354.952871,4.6268" id="Fill-12" fill="#221F20"></path>
                <g id="Group-16" transform="translate(405.326340, 7.367000)">
                    <mask id="mask-4" fill="white">
                        <use xlink:href="#path-3"></use>
                    </mask>
                    <g id="Clip-15"></g>
                    <path d="M0.766310956,0.252 C0.970439161,0.216 1.1423366,0.146 1.30056037,0.052 L0.800495105,0.134 C0.791704895,0.172 0.781937995,0.21 0.766310956,0.252" id="Fill-14" fill="#221F20" mask="url(#mask-4)"></path>
                </g>
                <path d="M371.155962,4.0156 L371.452876,4.0156 C371.542732,3.9276 371.623797,3.8236 371.701932,3.7096 L371.155962,4.0156 Z" id="Fill-17" fill="#221F20"></path>
                <path d="M383.590691,3.9004 C383.309404,3.8744 383.210759,4.5124 383.103323,4.7924 C383.26057,4.5284 383.470558,4.4024 383.715707,4.3524 C383.721567,4.2304 383.687383,4.0864 383.590691,3.9004" id="Fill-19" fill="#221F20"></path>
                <path d="M403.30762,5.0254 L403.657275,4.9374 C403.565466,4.9594 403.411149,4.9974 403.30762,5.0254" id="Fill-21" fill="#221F20"></path>
                <path d="M362.255191,3.8768 C362.234681,3.7808 362.188776,3.6988 362.143849,3.6488 C362.143849,3.7288 362.188776,3.8048 362.255191,3.8768" id="Fill-23" fill="#221F20"></path>
                <g id="Group-27" transform="translate(13.673660, 7.367000)">
                    <mask id="mask-6" fill="white">
                        <use xlink:href="#path-5"></use>
                    </mask>
                    <g id="Clip-26"></g>
                    <path d="M0.797858042,1.3184 C0.808601632,1.2724 0.794927972,1.2424 0.795904662,1.2024 C0.725582984,1.2684 0.702142424,1.3124 0.797858042,1.3184" id="Fill-25" fill="#221F20" mask="url(#mask-6)"></path>
                </g>
                <path d="M0.0581130536,5.5166 L0.258334499,5.4826 C0.278844988,5.3626 0.302285548,5.2426 0.302285548,5.1246 L0.0581130536,5.5166 Z" id="Fill-28" fill="#221F20"></path>
                <path d="M300.440385,2.5654 C300.460896,2.5674 300.469686,2.5714 300.49215,2.5754 C300.793947,2.5034 300.622049,2.5154 300.440385,2.5654" id="Fill-30" fill="#221F20"></path>
                <path d="M195.011293,3.035 C196.207738,3.607 193.067679,3.769 194.867719,4.403 C194.698752,4.155 196.499768,3.407 195.011293,3.035" id="Fill-32" fill="#221F20"></path>
                <g id="Group-36" transform="translate(404.349650, 7.367000)">
                    <mask id="mask-8" fill="white">
                        <use xlink:href="#path-7"></use>
                    </mask>
                    <g id="Clip-35"></g>
                    <path d="M1.42254895,0.167 L0.910763403,0.173 C1.14419231,0.195 1.3004627,0.193 1.42254895,0.167" id="Fill-34" fill="#221F20" mask="url(#mask-8)"></path>
                </g>
                <path d="M194.867231,4.4032 L194.867231,4.4092 L195.052802,4.4692 C194.97662,4.4432 194.932669,4.4272 194.867231,4.4032" id="Fill-37" fill="#221F20"></path>
                <path d="M273.979119,2.9482 C274.033814,3.0622 274.138319,3.1462 274.247709,3.2302 C274.239895,3.1602 274.177387,3.0822 273.979119,2.9482" id="Fill-39" fill="#221F20"></path>
                <path d="M293.692239,3.8584 L293.20487,3.7724 C293.396302,3.8324 293.554525,3.8504 293.692239,3.8584" id="Fill-41" fill="#221F20"></path>
                <path d="M263.743017,3.8506 C263.478334,3.8006 263.389455,3.7126 263.026127,3.8006 C263.060311,3.8326 263.092542,3.8546 263.135516,3.8766 C263.266393,3.7906 263.442197,3.7486 263.743017,3.8506" id="Fill-43" fill="#221F20"></path>
                <path d="M253.09192,3.8544 C253.147591,3.9044 253.22182,3.9384 253.287258,3.9844 C253.392741,3.9744 253.515803,3.9604 253.624216,3.9484 L253.09192,3.8544 Z" id="Fill-45" fill="#221F20"></path>
                <g id="Group-49" transform="translate(45.904429, 7.367000)">
                    <mask id="mask-10" fill="white">
                        <use xlink:href="#path-9"></use>
                    </mask>
                    <g id="Clip-48"></g>
                    <path d="M0.944752214,1.0098 C0.71034662,0.8298 0.565796503,0.6318 0.452500466,0.4358 C0.616584382,0.8898 -0.94904965,1.0518 0.944752214,1.0098" id="Fill-47" fill="#221F20" mask="url(#mask-10)"></path>
                </g>
                <path d="M406.087963,7.2578 C406.025455,7.4198 405.936576,7.5018 405.772492,7.5338 C405.895555,7.5218 406.012758,7.5118 406.127031,7.5018 C406.156331,7.4038 406.163168,7.3138 406.087963,7.2578" id="Fill-50" fill="#221F20"></path>
                <g id="Group-54" transform="translate(260.776224, 7.367000)">
                    <mask id="mask-12" fill="white">
                        <use xlink:href="#path-11"></use>
                    </mask>
                    <g id="Clip-53"></g>
                    <path d="M2.53372914,1.5324 L0.842102098,1.4344 C1.31579674,1.4964 1.93013473,1.5324 2.53372914,1.5324" id="Fill-52" fill="#221F20" mask="url(#mask-12)"></path>
                </g>
                <g id="Group-57" transform="translate(122.086247, 7.367000)">
                    <mask id="mask-14" fill="white">
                        <use xlink:href="#path-13"></use>
                    </mask>
                    <g id="Clip-56"></g>
                    <path d="M1.19126876,0.919 L0.801569464,0.997 C0.95197972,1.009 1.08871632,0.991 1.19126876,0.919" id="Fill-55" fill="#221F20" mask="url(#mask-14)"></path>
                </g>
                <g id="Group-60" transform="translate(254.916084, 7.367000)">
                    <mask id="mask-16" fill="white">
                        <use xlink:href="#path-15"></use>
                    </mask>
                    <g id="Clip-59"></g>
                    <path d="M1.67814872,1.5324 C1.37635152,1.3044 1.05697389,1.1724 0.725875991,1.0884 C0.653600932,1.1404 0.574489044,1.1804 0.530537995,1.2524 L1.67814872,1.5324 Z" id="Fill-58" fill="#221F20" mask="url(#mask-16)"></path>
                </g>
                <g id="Group-63" transform="translate(45.904429, 7.367000)">
                    <mask id="mask-18" fill="white">
                        <use xlink:href="#path-17"></use>
                    </mask>
                    <g id="Clip-62"></g>
                    <path d="M0.449668065,0.4288 C0.452598135,0.4328 0.452598135,0.4348 0.452598135,0.4348 C0.452598135,0.4348 0.452598135,0.4328 0.449668065,0.4288" id="Fill-61" fill="#221F20" mask="url(#mask-18)"></path>
                </g>
                <g id="Group-66" transform="translate(0.000000, 1.367000)">
                    <mask id="mask-20" fill="white">
                        <use xlink:href="#path-19"></use>
                    </mask>
                    <g id="Clip-65"></g>
                    <path d="M69.3425466,1.5772 C69.8445653,1.4852 70.0115793,1.6112 70.0809242,1.7432 C69.8445653,1.7632 69.5691387,1.7872 69.2038566,1.8192 C69.1892063,1.8392 69.1628357,1.8752 69.1452552,1.8972 C69.1940897,1.7752 69.2478077,1.6612 69.3425466,1.5772 M76.0397098,6.0092 C75.6539172,5.9852 75.1743625,5.9792 74.665507,5.9852 C74.555141,5.7632 74.6742972,5.5372 74.9936748,5.5492 C74.8208007,5.6952 75.5679685,5.8232 76.0397098,6.0092 M72.8732809,6.0192 L72.8732809,6.0332 C72.5499965,6.0472 72.2716399,6.0612 72.0958357,6.0672 C72.2579662,6.0592 72.4806515,6.0452 72.8732809,6.0192 M36.3030781,6.6412 C38.228134,6.4052 37.1938193,7.2612 37.850155,7.6912 C39.0514837,7.4692 39.9725023,6.6972 40.8700804,6.7292 C40.937472,6.8692 41.1103462,6.9192 40.9062179,7.0932 C42.178845,6.4252 44.6791713,7.0592 46.1598333,6.2212 C46.2692226,6.2932 46.3258706,6.3652 46.3541946,6.4292 C46.1129522,6.0052 46.075838,5.5792 46.1246725,5.2752 C46.8493765,5.2592 47.4666445,4.7432 47.7401177,5.2932 C47.2957238,5.2772 47.2605629,5.4992 47.0515513,5.6712 L47.8075093,5.4312 C48.4911923,6.2212 46.775148,5.7032 46.775148,6.2892 C48.2538566,6.0332 49.9738077,5.3792 51.1067681,5.6032 C51.3421503,6.3752 48.4599382,5.8632 49.9699009,6.5492 L48.2186958,6.2552 C49.5557844,7.4732 47.1541037,6.1672 48.3837564,7.4732 C50.6887448,7.6992 50.9622179,7.0812 53.2603695,7.3032 C53.7780152,6.8752 53.0894487,6.6692 53.6090478,6.2412 C56.8750991,5.4692 56.1806725,8.1832 58.5823531,7.1512 C59.206458,6.6392 59.4457471,5.6612 61.1559312,6.1772 L60.5748007,7.0512 C62.8055606,7.1392 61.8474277,5.7932 64.1846469,6.3832 C63.7695536,6.7252 62.4305117,6.6732 62.7694231,6.7772 C64.2823159,7.4652 63.8388986,6.2832 65.0040897,6.2832 L65.2433788,7.0552 C67.6206422,6.9332 70.2381713,6.3752 72.8674207,6.2332 C72.7228706,6.4652 72.2716399,6.7072 72.8879312,6.9432 C76.2077005,6.5552 79.9718636,7.0372 83.1744301,7.4952 L84.3972459,6.8292 C84.6824394,6.8352 84.9246585,7.1292 84.6170012,7.2592 C85.8632576,7.5132 84.6824394,6.8352 85.2801737,6.5732 C85.9902273,6.5252 86.2187727,6.9592 85.7685186,7.1572 C87.9699779,6.5912 92.039845,5.9372 94.3594837,6.6532 L93.9062995,6.8512 C95.7141527,7.1192 95.9456282,5.4812 97.6206515,6.1052 L97.2993205,6.2252 C101.218777,6.5132 105.551374,5.9012 108.541999,6.9092 C109.112386,5.9472 112.424341,7.3392 112.675351,5.9972 C114.913924,6.6612 114.273216,6.9032 117.424994,7.3492 C118.267878,7.4112 118.679064,6.5092 119.721192,6.3732 L119.74561,7.0732 L121.160833,6.3352 L121.911908,7.1752 L122.887621,6.9972 C122.497922,6.9532 122.061341,6.6792 122.119943,6.4792 C123.646509,6.1612 125.839178,6.9672 125.875316,7.3252 L129.485162,6.7332 C129.404097,7.0152 128.799526,7.1132 128.323878,7.2912 C130.24698,6.5752 128.672556,8.0312 130.437435,7.3752 C130.201076,7.2152 130.564404,6.9592 130.606402,6.8152 C131.484446,7.2392 133.486661,7.2432 134.969276,7.0652 L134.685059,7.5472 C137.36119,7.6712 140.326421,7.3152 143.329742,7.3252 C142.252453,7.0992 142.499556,6.2612 143.381507,6.1812 L143.734092,6.9212 C144.302526,6.4652 142.81405,6.6412 143.981195,6.0832 C145.102435,6.1672 144.736176,6.9232 144.090584,7.1652 L145.455997,6.9092 C145.535108,7.1292 145.216707,7.2472 145.131735,7.5292 C145.692355,7.0692 147.486535,8.2732 148.295234,7.4732 L148.371416,7.6932 C151.372784,7.7012 152.736244,7.4452 155.181875,7.4092 C155.22778,6.7672 156.185913,6.9092 156.91257,6.3932 C158.710656,6.5972 160.706034,7.0992 162.872332,7.0452 C164.393038,6.7252 163.316726,6.5032 164.001386,6.1232 C164.112728,6.7072 166.27512,6.6512 165.152903,7.0712 C167.752852,6.9752 168.473649,6.9532 171.761188,6.4792 C171.404696,6.2432 171.003276,6.1372 171.210334,5.9392 C171.807092,5.8452 172.56891,6.1832 172.483938,6.4652 L172.324738,6.5252 C176.015649,5.6512 180.842451,8.2232 183.779358,7.0092 L183.614297,7.0692 L186.66157,6.4352 C188.06312,6.5352 185.821617,6.8732 186.858861,7.2352 C190.145423,6.2612 192.051922,7.3752 194.75833,6.7252 C196.85333,8.4472 202.193871,6.6072 205.021388,7.7052 L204.858281,7.2972 C205.588845,6.9032 205.742185,7.5332 206.281318,7.6232 C206.205136,7.3092 205.488246,7.2592 205.942407,7.0412 C212.133645,6.5492 218.721418,7.6292 225.07088,7.9972 C227.390519,8.1032 226.388435,5.9012 229.315575,6.8692 L228.483435,7.6192 C233.169593,6.7192 238.063787,7.6512 242.6513,6.8872 C242.377826,7.0592 242.37099,7.2832 241.921712,7.2812 C242.891565,7.8292 245.504211,7.3092 245.521791,6.8632 C246.234775,6.9152 245.685875,7.2652 246.126362,7.4932 C247.099146,7.8172 248.565157,6.7952 249.081826,7.3392 C249.170705,7.4252 248.808353,7.5172 248.631572,7.5572 C249.265444,7.2932 251.582153,7.6252 250.975628,6.9972 C252.695579,7.2952 254.269027,6.7152 255.642253,7.0892 C256.537878,6.3832 258.586973,7.4252 258.872167,6.4312 C258.749104,7.4592 261.891115,7.2612 262.981101,6.7772 C262.615819,7.0892 263.925561,7.0992 263.498747,7.5332 C264.741097,7.5172 265.880894,7.3252 265.665045,6.7952 C267.951477,8.0272 270.263302,5.8032 271.551556,7.3832 C275.241491,6.8292 278.655999,6.4552 281.976745,6.2152 C281.854659,7.2412 278.307321,6.3192 278.449917,7.3952 C281.594859,6.9712 283.415409,6.0912 286.53691,6.3372 C287.344633,6.4792 286.077866,6.7852 285.804393,6.9592 C288.950311,6.5352 291.886241,7.0512 294.687388,6.4932 C294.677621,6.5872 294.376801,6.6932 294.089654,6.7712 C294.644414,6.7392 295.374001,6.9212 295.310516,6.4552 L294.773337,6.5832 C293.892362,5.9052 296.965029,5.1672 297.062698,4.8112 C296.125076,6.1472 299.828684,5.1472 298.339232,6.8352 C298.703537,6.7472 299.160628,6.5252 299.074679,6.2152 C299.613812,6.3052 299.784733,6.4872 299.238763,6.8412 C301.215584,6.5872 300.512367,6.0932 302.303617,6.1032 C302.297756,6.3292 301.936381,6.4172 301.751787,6.6812 C302.658155,6.2432 303.566477,5.8012 305.081323,5.9932 C304.989514,6.1292 305.167272,6.3052 304.713111,6.3032 C307.312083,6.2332 309.143376,5.1272 311.994334,5.5532 C311.153404,6.5352 312.962234,5.8772 313.113621,6.7252 L314.647024,6.4732 L314.03171,6.0612 C315.374659,6.0752 316.561337,5.4592 317.716761,5.7352 L316.717607,6.0852 L319.233561,5.9232 L317.80857,5.6032 C319.168122,5.1632 317.664997,4.5272 319.453316,4.7652 C319.08901,4.8512 320.795288,4.7732 321.493621,5.2752 C322.15484,5.0072 322.837547,4.7212 323.829864,4.9332 C324.086733,5.2052 323.622805,5.8712 323.791773,6.0532 C324.445178,5.3412 326.933784,5.8552 327.763971,5.0992 C327.487568,5.2772 327.473894,5.7252 327.564726,5.8152 L328.113626,5.2372 C328.734801,5.4212 328.827586,5.5112 328.727964,5.8672 C330.596372,5.9712 328.131206,4.7872 330.353176,5.2532 C330.178348,5.2992 330.262344,5.3852 329.898038,5.4732 C332.129775,5.7152 334.207195,5.1072 336.255314,5.3892 C336.860861,6.2472 334.466994,5.6012 335.156537,6.3212 C338.112978,6.1672 341.277453,5.2972 344.135248,5.4992 L343.602952,5.4052 C343.997535,4.1972 345.732136,6.0012 347.178614,5.4312 C346.824076,5.5212 346.712733,6.1032 346.809425,5.9672 C348.767689,6.1612 350.812878,5.6712 353.779085,5.2912 L353.41185,5.6012 C354.564344,5.8772 356.453262,5.7592 357.696589,5.9012 C358.065777,5.5932 358.780714,5.6412 358.347064,5.1912 C362.188386,6.9592 365.678099,4.2432 369.087724,5.7152 C368.680444,5.7192 368.115917,5.9872 368.439202,5.9892 L371.346808,5.7012 C371.117286,5.1772 370.965899,5.3832 370.354491,4.9752 C370.721726,4.6632 371.542146,4.4212 372.26099,4.4212 C370.956132,4.7692 372.273686,5.2672 372.83626,5.5592 C372.744451,5.3992 372.935882,5.2192 372.889978,5.0552 C374.405801,5.9932 373.143917,3.9972 375.215477,4.6272 L375.104134,4.9052 C375.880603,4.7652 376.593586,4.3992 377.43061,4.4772 C377.776358,5.0852 376.605307,4.7632 376.550612,5.2612 C377.72557,5.2252 378.871227,4.1112 379.931913,4.7152 C379.433801,4.8852 378.714957,4.8892 378.218798,5.0552 C379.376176,5.7712 379.509006,5.5892 380.367516,5.7012 L382.272062,6.0092 L381.76809,5.8152 C383.236055,4.2312 384.757738,5.5272 386.738465,4.4872 C384.814386,5.4712 386.419087,5.0552 386.271607,5.7472 C386.777533,5.9372 387.545211,6.1512 387.328386,6.3452 C388.262101,5.7872 388.889136,6.7852 390.209621,5.9712 C390.270176,6.1932 391.210728,5.9932 390.99781,6.5492 C392.216719,6.3752 390.71164,6.1632 390.815169,5.8832 C392.690414,5.1252 395.221017,6.8032 397.919612,5.7632 C400.245111,5.3352 400.673878,4.5872 402.833339,4.2152 C403.560973,4.5692 402.236582,5.0232 402.236582,5.0232 C403.41154,5.3512 404.295444,5.2912 405.403987,5.0372 C405.178372,5.2292 405.409847,5.3932 405.747782,5.6412 C406.63657,5.5832 406.34161,4.8332 407.515591,5.1612 C407.312439,5.4092 407.05557,5.8032 406.626803,6.0532 C407.672838,5.8472 408.708129,5.4352 409.791279,5.2332 C410.079402,5.6212 409.13885,5.8212 408.75501,6.0732 C409.974896,5.8992 411.912649,5.7252 412.290628,5.1112 L411.507323,4.8932 C411.95367,4.8632 411.736845,5.4172 411.4077,5.5312 C410.364596,6.0092 409.902621,5.3172 409.843043,5.0952 L410.616582,4.9532 C409.821556,3.6512 407.515591,5.1612 405.9607,5.0852 L406.607269,4.1392 L405.013311,4.9252 C404.673423,4.6772 404.443901,4.1492 405.208649,4.0072 C404.096199,3.5392 404.223169,4.3432 403.266013,3.8232 C403.161507,3.7432 403.207411,3.6972 403.30801,3.6592 L402.215094,3.9412 C402.43192,3.7432 402.037337,3.2732 402.706369,3.4092 C400.75299,2.8632 399.555568,4.1192 398.819143,3.4012 L398.984204,3.3432 C396.269983,3.6652 398.721474,4.0372 396.686052,4.8552 L395.316733,3.1392 L395.051073,3.8352 C394.769787,3.8092 394.217957,3.7572 394.320509,3.4792 C393.280334,3.9552 394.499244,3.7812 393.891742,4.2312 C392.547817,3.5972 390.181297,4.5272 389.8795,3.4192 C389.395062,3.9492 391.164824,3.8272 389.728113,4.1952 C389.31595,3.0032 388.066763,4.3992 386.837111,3.8532 C387.213136,3.2372 388.378328,3.5652 387.150628,3.0132 C386.405414,4.0532 384.754808,2.7872 383.71561,2.9852 C383.669705,3.8132 381.460432,3.3312 379.718017,3.6072 C379.828383,3.3292 376.444153,3.1532 374.822847,2.8532 L374.871682,2.7152 C374.559141,3.5512 372.889978,3.3932 371.673022,3.5652 C371.718927,3.0652 371.938682,2.8692 372.598924,2.6452 C371.185654,2.9152 370.829162,3.0572 370.086878,3.1532 L370.372071,2.5292 C368.851365,2.5612 367.310148,3.2652 365.349931,2.8452 C365.241519,3.4292 366.908728,4.4692 364.839122,4.8572 C364.761964,4.5432 364.684805,4.0032 365.225892,3.8752 C365.048134,3.9172 364.591043,4.1372 364.234551,4.0012 L365.061808,3.4732 C364.172043,3.2392 364.596903,3.9152 363.88392,3.8672 C363.89857,3.4172 363.35553,3.5452 363.457106,3.1872 C363.547938,3.1172 362.576132,2.8492 362.254801,2.5092 C362.326099,2.7672 362.254801,3.1152 361.666833,3.1732 C360.144174,3.2052 361.145281,2.6332 360.259423,2.4032 C359.890234,2.7152 358.918428,2.3912 358.893034,3.0632 C358.446686,3.0592 358.366598,2.7452 358.192747,2.5632 C357.407488,2.8612 354.515509,2.6492 355.402344,3.3652 L355.605495,3.4112 C355.567404,3.4192 355.522477,3.4292 355.476572,3.4392 C352.894204,4.1092 350.113568,3.0592 347.550733,3.3492 L347.556593,3.1232 C346.02612,3.3792 344.153805,3.2752 343.058936,3.7572 C342.607705,3.7572 341.993367,3.3492 342.187728,3.0792 C341.016677,3.2492 340.885801,3.5012 339.199057,3.1292 C340.373038,2.7392 338.792754,2.7832 340.401362,2.8432 C338.883586,2.6492 338.539791,2.2872 336.907742,2.9032 C337.464456,2.3292 335.764038,2.1772 335.044218,2.3492 L336.107833,2.7612 C335.298157,2.8452 334.587127,2.7952 333.865353,2.7452 L334.254076,1.9892 C331.148202,1.0692 328.650805,3.5552 326.284286,2.0152 C325.461913,2.5432 327.972983,2.3872 327.238512,3.0052 C325.806684,2.9032 324.317232,1.8172 323.871861,1.8152 C321.911645,1.3972 322.043498,2.9212 319.992449,2.6352 C320.256155,2.9032 320.503258,3.6272 318.970831,3.8792 C317.540957,3.7792 317.211812,2.7472 318.116227,2.5312 C318.459045,2.5092 318.624106,2.5932 318.610432,2.6872 C319.07143,2.5872 319.679908,2.4712 319.113428,2.1772 L318.927857,2.4492 C318.216826,2.1732 316.247819,2.2012 316.709794,1.7592 C315.629575,2.0152 316.247819,2.2012 317.048705,2.3412 C315.213505,1.9512 314.18505,2.3292 312.293202,2.0672 C312.594999,2.2152 312.869449,2.5332 312.572535,2.5312 C309.802642,2.1972 311.352649,3.0432 309.474474,3.1612 C308.408906,2.7512 309.85636,2.1772 307.967442,2.5252 C306.814948,2.2432 307.724246,1.8052 308.18036,1.5852 C306.460409,2.1072 304.966073,1.2452 303.982547,1.1472 L304.888915,0.9312 C304.345875,1.0612 303.900505,1.0572 303.450251,1.0532 L303.96985,1.5952 C303.437554,1.5012 302.984369,1.4992 302.995113,1.2772 C302.445237,1.6272 303.413136,2.1732 302.325104,2.6572 C301.614073,2.3812 300.165642,2.9512 299.91854,2.2352 C302.153206,2.4772 299.67339,1.5152 301.563286,1.3992 C301.197027,1.4832 300.752633,1.4812 300.21936,1.3872 C300.138295,1.3052 300.294565,1.2372 300.440092,1.1992 C298.305048,0.5572 299.458519,2.0072 297.244362,1.9912 C297.526626,1.5852 296.730624,1.2232 296.369248,1.3112 C297.260966,1.3212 296.797038,1.9852 295.977596,2.2932 C294.557488,1.9792 294.435402,2.5292 293.692141,2.4912 L294.539908,2.6392 C294.250808,3.0432 293.544661,2.9912 292.554297,3.1172 C292.469325,2.8032 293.451875,2.9012 293.098314,2.7612 C291.999537,3.4732 290.616544,2.0292 289.083141,2.5072 C288.375041,2.2332 289.016726,1.7472 288.391645,1.5612 C286.6756,2.0852 286.532027,1.0092 284.726127,1.4412 C285.248656,1.9852 285.338512,1.8512 284.070768,2.3792 L287.036976,1.9972 L285.130477,2.7872 C286.026101,2.7952 287.019395,2.4472 287.558528,2.5392 C286.650206,2.9812 286.744945,2.8452 287.172735,3.2972 C285.946013,2.4812 284.743707,3.7712 283.325554,3.2212 L283.370481,1.8772 C281.240321,1.2772 279.585808,2.5672 276.820798,2.2292 L277.710563,2.4612 C277.339421,2.9972 276.002332,2.5372 275.106707,2.7532 C275.190703,2.3032 274.630083,2.1392 274.248197,1.8632 C274.295078,2.1972 272.225472,1.8312 271.974463,2.7292 L270.74188,2.1352 C268.507213,1.8932 268.191742,3.4172 266.045955,3.2652 C266.691547,2.7772 265.71681,2.4552 267.154498,2.1072 C266.437607,2.1032 265.793969,2.0212 265.782248,2.3312 C265.363248,2.0512 263.794684,2.9352 263.135418,2.5092 C262.834598,2.7092 262.735952,3.1792 261.93116,3.1432 C261.845211,3.0512 261.933113,2.9192 261.933113,2.9192 C261.93116,3.1432 260.67416,3.2212 261.377376,3.7172 C259.170057,2.3172 255.207626,3.8212 253.287453,2.6172 C251.722796,2.7672 249.839738,2.9132 248.421584,2.9452 C248.510463,2.8112 248.422561,2.7212 248.693104,2.7672 C246.73484,2.3492 247.488845,4.0572 245.260038,3.5912 C244.122195,2.8632 246.443787,3.1972 245.73471,2.9232 C245.425099,1.4432 243.044906,3.1252 241.543733,2.2612 L241.909992,2.1752 C240.762381,1.6712 239.111775,2.7352 237.23653,2.6292 C237.23653,2.6292 237.329316,2.4972 237.248251,2.4052 C235.968787,3.1592 233.542689,3.4092 231.741672,3.6172 C232.302293,3.0392 232.559162,3.3132 232.217321,2.7232 C231.411551,2.8092 232.455633,3.6692 230.842141,3.8332 C230.317659,3.5172 229.155397,3.2392 229.000104,2.6132 L230.521787,2.5792 C229.743365,1.7652 228.554733,2.6072 227.752871,2.4652 L227.855423,2.1112 C225.525041,2.2252 225.490857,3.1192 222.9876,3.0552 L223.246423,3.3252 C221.87808,4.2092 222.098812,2.8272 220.734376,3.4852 L220.321237,2.5872 C219.415845,2.8032 217.157738,3.4552 215.537409,3.6232 C216.455498,2.9572 218.3493,2.6172 219.522304,2.2212 C218.628633,2.2152 216.480892,2.2872 216.01208,2.7312 C216.375409,2.6452 216.82957,2.4232 217.185085,2.5612 C216.087286,3.2692 214.642761,3.6152 212.857372,3.5992 C213.174796,1.8572 208.208328,3.1612 206.914213,1.8092 C203.758528,2.4512 200.653631,1.5352 196.977369,1.6372 C198.281251,2.9932 195.903987,1.6732 196.129603,3.0672 C195.274022,3.1572 194.946831,3.1332 194.869672,3.0432 L192.275584,2.2112 C191.659293,1.8052 193.089167,1.9052 193.010055,1.5932 C191.13481,1.4852 192.223819,1.0012 190.983423,0.6332 C191.238339,1.1312 190.331971,1.3452 189.261519,1.1572 L190.767575,1.7972 C188.149069,2.5392 188.502631,0.6312 185.860684,1.3652 L186.696731,0.9252 C185.343038,1.1852 181.698031,0.9172 180.36778,2.0352 C180.128491,1.8732 179.811066,1.4932 180.407824,1.3932 C177.16912,1.2252 173.197899,2.5832 170.679992,1.8932 L170.927094,1.5532 C170.321547,1.6532 169.875199,2.1932 169.118265,1.8512 C169.156355,1.7092 169.36146,1.5092 169.08115,1.4892 C168.762749,1.6092 167.477425,2.0872 166.675563,1.8872 L167.359246,1.5052 C164.201607,1.0612 162.510957,2.4392 159.86315,2.6712 C159.86901,1.6712 157.383334,1.3432 156.141962,1.1832 L156.185913,1.0412 C152.505745,0.9172 149.936073,1.8692 146.528402,2.2632 C144.414845,1.1772 139.365358,1.8092 135.9655,1.2012 C136.486076,1.3832 135.881505,1.9792 135.27791,2.0792 C134.479955,1.8772 133.072544,2.7772 133.198537,1.8552 C132.883066,0.9732 131.243204,1.2132 129.96374,1.1892 L129.752775,2.3892 C126.405659,0.6432 120.981122,3.0312 119.152759,1.4652 C118.346013,1.7652 117.344906,1.7632 116.544997,2.0652 L116.586994,1.4192 C114.350374,1.2552 113.231087,1.1732 110.465101,1.3272 L111.030605,0.8652 C109.467901,0.8252 109.058668,2.7232 107.61805,2.7612 L107.186353,1.8012 C104.462365,1.8152 101.707122,0.9712 99.0182949,1.8452 C99.0612692,1.7012 99.1403811,1.4232 99.581845,1.3872 C98.299451,1.3612 94.6251434,0.7352 95.0900478,2.0552 C95.057817,1.1952 92.2801107,1.9712 90.8092156,2.3492 L91.0377611,1.7152 C89.7973648,2.5252 89.7592739,2.7472 88.0256492,2.9712 C87.6144627,2.8872 87.6662273,2.4652 88.212197,2.6252 C86.8438543,2.2932 87.1456515,3.2272 85.4862552,2.8872 L86.1035233,2.4832 C84.6951364,2.4352 84.8084324,2.6532 84.0319639,3.1252 C83.1470828,3.3792 81.3616935,2.9632 81.1526818,2.3912 C80.9622273,2.7412 80.1916189,3.2092 79.3614324,3.0432 C79.2491131,2.8272 79.5528636,2.6932 79.7032739,2.6252 C77.3504277,2.1972 76.202817,3.3652 74.5844417,2.7412 C74.5512343,2.5312 74.4447751,2.4252 74.3109685,2.3612 C76.1803531,2.3772 77.6873858,2.4112 77.5467424,2.4572 C77.5467424,1.8732 76.0367797,1.7712 77.2390851,0.9632 C76.0250594,1.4052 73.9515466,2.3612 72.4777214,2.0872 C72.4064231,2.0312 72.3351247,1.9752 72.2833601,1.8852 L72.4357238,1.8192 C72.0958357,1.7612 71.7911084,1.8152 71.5039615,1.9152 C71.0351503,1.8172 70.7362832,1.7472 70.2850524,1.7372 C70.1112016,1.2552 68.5524044,1.4772 67.7983998,1.4552 C67.8609079,2.0932 66.8754277,1.9912 67.7983998,2.5192 C67.6792436,2.4712 67.9419732,2.4412 68.4430152,2.4152 C68.5543578,2.3972 68.6901177,2.3872 68.7633695,2.3492 L68.7125816,2.4052 C69.20581,2.3952 69.8523788,2.3812 70.5839196,2.3632 C69.9900921,2.6892 69.3679406,2.9612 68.5338473,2.6072 C68.1470781,3.0172 67.7222179,3.4392 67.4819522,3.6372 C66.4515443,2.7452 64.4649569,2.2632 64.1875769,1.7132 C61.8884487,2.0732 58.7698776,1.9512 57.3214464,3.1532 C56.6680408,3.3072 56.5703718,2.8092 56.3261993,2.6192 C56.7041783,2.4972 57.1534557,2.5172 57.3575839,2.3432 C56.0488193,2.6532 53.4820781,2.4652 53.1695373,3.3032 C51.5208846,2.9232 54.0983695,2.5312 51.8304953,2.6692 L52.1381527,2.4112 C47.6805396,1.0692 44.8920897,4.5532 39.9539452,2.8332 C40.2957867,2.9352 40.4676841,2.9852 40.5370291,3.1272 C34.9054347,2.3672 28.9300455,3.8392 23.3736562,2.6352 C21.7933718,2.3932 21.6234277,2.9292 20.658458,3.3352 L20.3166166,2.6492 L18.6708939,3.4432 C16.3317214,4.0212 14.6205606,1.7552 11.6621667,2.8532 L12.0440524,3.3172 C10.9804371,3.2292 8.6774021,3.5892 8.85515967,3.0572 C8.74674709,3.1432 8.50648135,3.5372 8.09041142,3.2972 L8.05818065,2.9352 L5.44846503,3.5532 C3.4247634,3.2932 5.7639359,2.1252 2.80944872,2.0572 C1.71262587,2.1972 -0.314005828,3.1032 0.0971806527,3.3432 C0.540597902,3.3612 1.22916434,3.5692 1.2613951,3.9272 L0.258334499,4.1172 C0.0766701632,5.1752 -0.695891608,6.2592 1.76927389,6.9992 L3.48531818,6.3512 L4.04007809,6.8672 L2.59457692,6.8992 C3.4149965,7.3812 3.93361888,6.9532 4.51572611,6.6612 C4.65441608,6.9332 4.8966352,7.1232 5.2375,7.2272 L6.92229021,6.2152 C7.12641841,6.6292 6.16535548,7.0372 7.29831585,7.2652 C8.08748135,6.7952 6.53845105,6.3352 7.84721562,6.0292 C8.67056527,6.5092 8.43029953,6.9032 9.39429254,6.4932 C9.52809907,6.7632 9.32494755,6.9372 8.94208508,7.0592 C9.80059557,6.7292 11.213866,6.9192 11.6572832,6.3572 C12.5128636,6.9512 14.5541457,6.2012 14.4691737,7.2032 C14.7416702,6.9652 15.9830431,6.4172 16.7712319,6.3752 C15.3315909,7.5752 19.722789,6.4452 19.3428566,7.7332 C20.4074487,6.6532 23.1929685,7.2512 25.0818869,6.6552 C24.9764044,6.7392 24.7683695,6.9152 24.6003788,6.8592 C25.6649709,6.9492 25.9736049,7.2712 26.6572879,7.4772 C26.7930478,6.5872 28.4485373,6.3812 29.3392786,5.8332 C30.6431597,6.6932 28.5491364,6.8792 28.9573928,7.7052 C28.8929312,6.9832 31.2213601,6.9832 30.7779429,6.3812 C31.7751434,6.9152 31.6374301,6.6392 32.151169,7.3792 C32.3250198,6.2652 33.0780478,7.1912 33.9053042,6.5052 C35.3449452,7.0552 34.2754697,7.5512 35.8586841,7.2112 C36.6126888,7.5532 35.2043019,7.9472 35.2043019,7.9472 C36.816817,7.9652 35.9612366,7.1232 36.3030781,6.6412 Z" id="Fill-64" fill="#221F20" mask="url(#mask-20)"></path>
                </g>
                <path d="M68.4426245,3.7812 C68.3693727,3.7972 68.3312818,3.8232 68.2355662,3.8292 C68.3381186,3.8852 68.434811,3.9332 68.5344333,3.9732 C68.5959648,3.9052 68.6565196,3.8352 68.7121909,3.7732 C68.6213587,3.7752 68.5266198,3.7792 68.4426245,3.7812" id="Fill-67" fill="#221F20"></path>
                <path d="M355.402148,4.7314 L355.335734,4.7154 C355.392382,4.7414 355.442193,4.7674 355.476377,4.8074 C355.429496,4.7754 355.429496,4.7554 355.402148,4.7314" id="Fill-69" fill="#221F20"></path>
                <g id="Group-73" transform="translate(119.156177, 7.367000)">
                    <mask id="mask-22" fill="white">
                        <use xlink:href="#path-21"></use>
                    </mask>
                    <g id="Clip-72"></g>
                    <polygon id="Fill-71" fill="#221F20" mask="url(#mask-22)" points="0.594218182 1.2344 0.590311422 1.0724 0.313908159 1.2124"></polygon>
                </g>
                <path d="M372.836553,6.9266 C372.870737,6.9826 372.936175,7.0406 373.066075,7.0926 C373.056308,7.0486 372.956686,6.9906 372.836553,6.9266" id="Fill-74" fill="#221F20"></path>
                <path d="M380.367809,7.0682 L381.433378,7.2982 C380.973357,7.1682 380.638352,7.1082 380.367809,7.0682" id="Fill-76" fill="#221F20"></path>
                <path d="M386.158311,7.3866 C386.231563,7.2746 386.255003,7.1906 386.271607,7.1126 L386.260864,7.1086 L386.158311,7.3866 Z" id="Fill-78" fill="#221F20"></path>
                <g id="Group-82" transform="translate(293.006993, 7.367000)">
                    <mask id="mask-24" fill="white">
                        <use xlink:href="#path-23"></use>
                    </mask>
                    <g id="Clip-81"></g>
                    <path d="M1.08305152,0.7706 C1.00589301,0.7806 0.928734499,0.7926 0.85938951,0.8006 C0.335883683,0.9246 0.694328904,0.8766 1.08305152,0.7706" id="Fill-80" fill="#221F20" mask="url(#mask-24)"></path>
                </g>
                <path d="M321.488835,6.6444 C321.196805,6.7604 320.911612,6.8724 320.608838,6.9464 C321.096206,6.9964 321.475162,7.0084 321.488835,6.6444" id="Fill-83" fill="#221F20"></path>
                <g id="Group-87" transform="translate(262.729604, 7.367000)">
                    <mask id="mask-26" fill="white">
                        <use xlink:href="#path-25"></use>
                    </mask>
                    <g id="Clip-86"></g>
                    <path d="M0.766310956,1.542 C0.769241026,1.538 0.766310956,1.536 0.769241026,1.532 L0.58073986,1.532 L0.766310956,1.542 Z" id="Fill-85" fill="#221F20" mask="url(#mask-26)"></path>
                </g>
                <path d="M319.333281,6.9354 C319.822602,7.0614 320.228905,7.0354 320.608838,6.9474 C320.209372,6.9034 319.738607,6.8394 319.333281,6.9354" id="Fill-88" fill="#221F20"></path>
                <g id="Group-92" transform="translate(411.186480, 7.367000)">
                    <mask id="mask-28" fill="white">
                        <use xlink:href="#path-27"></use>
                    </mask>
                    <g id="Clip-91"></g>
                    <path d="M0.0701263403,0.3126 L0.348482984,0.3366 C0.344576224,0.2946 0.361179953,0.2606 0.382667133,0.2326 L0.0701263403,0.3126 Z" id="Fill-90" fill="#221F20" mask="url(#mask-28)"></path>
                </g>
                <g id="Group-95" transform="translate(411.186480, 7.367000)">
                    <mask id="mask-30" fill="white">
                        <use xlink:href="#path-29"></use>
                    </mask>
                    <g id="Clip-94"></g>
                    <path d="M0.38296014,0.2336 L0.691594172,0.1576 C0.550950816,0.1576 0.427887879,0.1636 0.38296014,0.2336" id="Fill-93" fill="#221F20" mask="url(#mask-30)"></path>
                </g>
                <path d="M412.530796,7.3652 L411.878367,7.5252 C412.104959,7.5292 412.383316,7.5472 412.530796,7.3652" id="Fill-96" fill="#221F20"></path>
                <g id="Group-100" transform="translate(403.372960, 7.367000)">
                    <mask id="mask-32" fill="white">
                        <use xlink:href="#path-31"></use>
                    </mask>
                    <g id="Clip-99"></g>
                    <path d="M0.218876224,0.0148 L0.129997436,0.2468 C0.177855245,0.1988 0.209109324,0.1228 0.218876224,0.0148" id="Fill-98" fill="#221F20" mask="url(#mask-32)"></path>
                </g>
                <path d="M401.261747,7.4492 C401.815531,7.5012 402.655484,7.9432 403.430976,7.7992 L403.503251,7.6132 C403.140899,7.9572 401.788183,7.0572 401.261747,7.4492" id="Fill-101" fill="#221F20"></path>
                <path d="M391.540557,4.581 L393.49003,4.767 C393.150142,4.521 392.699888,4.187 393.589652,4.129 C391.128393,3.391 394.097531,4.679 391.540557,4.581" id="Fill-103" fill="#221F20"></path>
                <path d="M385.484883,4.2216 C386.533848,4.1076 385.475117,3.8636 385.529811,3.7236 C384.863709,3.9496 384.702555,4.0056 385.484883,4.2216" id="Fill-105" fill="#221F20"></path>
                <path d="M341.747534,4.2206 L341.850087,3.6366 C341.043341,3.7226 341.844227,3.8646 341.747534,4.2206" id="Fill-107" fill="#221F20"></path>
                <polygon id="Fill-109" fill="#221F20" points="333.385603 7.2294 334.172815 7.5914 334.545911 7.0574"></polygon>
                <polygon id="Fill-111" fill="#221F20" points="328.446775 3.082 328.798383 2.998 327.451528 3.212"></polygon>
                <path d="M254.985234,3.29 L255.230383,4.006 C255.776352,3.876 255.889648,3.072 254.985234,3.29" id="Fill-113" fill="#221F20"></path>
                <path d="M223.271426,4.0204 C222.925678,3.6604 222.03396,3.4324 221.48506,3.7804 C222.197067,3.8324 222.908098,4.1104 223.271426,4.0204" id="Fill-115" fill="#221F20"></path>
                <polygon id="Fill-117" fill="#221F20" points="128.161942 2.8506 128.799721 2.6126 127.597416 2.8086"></polygon>
            </g>
        </g>
    </g>
</svg>